<?xml version="1.0" encoding="UTF-8" standalone="no"?>
<svg
   id="Layer_1"
   data-name="Layer 1"
   viewBox="0 0 50.5 60.56"
   version="1.1"
   sodipodi:docname="lil-guy+shield_emptystroke.svg"
   inkscape:version="1.3.2 (091e20ef0f, 2023-11-25)"
   xmlns:inkscape="http://www.inkscape.org/namespaces/inkscape"
   xmlns:sodipodi="http://sodipodi.sourceforge.net/DTD/sodipodi-0.dtd"
   xmlns="http://www.w3.org/2000/svg"
   xmlns:svg="http://www.w3.org/2000/svg">
  <sodipodi:namedview
     id="namedview2"
     pagecolor="#000000"
     bordercolor="#000000"
     borderopacity="0.25"
     inkscape:showpageshadow="2"
     inkscape:pageopacity="0.0"
     inkscape:pagecheckerboard="0"
     inkscape:deskcolor="#d1d1d1"
     inkscape:zoom="20.260898"
     inkscape:cx="25.245673"
     inkscape:cy="30.304679"
     inkscape:window-width="2539"
     inkscape:window-height="1370"
     inkscape:window-x="0"
     inkscape:window-y="0"
     inkscape:window-maximized="1"
     inkscape:current-layer="Layer_1" />
  <defs
     id="defs1">
    <style
       id="style1">
      .cls-1 {
        fill: #fff;
        stroke-width: 0px;
      }

      .cls-2 {
        fill: #ffc60b;
        stroke: red;
        stroke-miterlimit: 10;
      }
    </style>
  </defs>
  <ellipse
     class="cls-1"
     cx="21.58"
     cy="11.74"
     rx="12.44"
     ry="11.74"
     id="ellipse1" />
  <path
     id="path1"
     class="cls-1"
     d="M 21.589844 24.089844 C 9.6598557 24.089844 0 34.979935 0 48.419922 L 18.580078 48.419922 L 18.580078 31.369141 L 23.886719 28.642578 C 26.01841 27.544237 28.274997 26.773166 30.582031 26.304688 C 28.716294 25.339295 26.707383 24.661965 24.599609 24.330078 C 23.60961 24.170078 22.609843 24.089844 21.589844 24.089844 z M 35.791016 31.779297 C 32.634343 31.779297 29.476685 32.512281 26.634766 33.976562 L 26.632812 33.978516 L 24.580078 35.03125 L 24.580078 48.419922 L 35.789062 48.419922 L 36.394531 31.796875 C 36.193086 31.790907 35.992543 31.779297 35.791016 31.779297 z " />
  <path
     style="color:#000000;display:inline;fill:#ffc60b;stroke:none;stroke-miterlimit:10;-inkscape-stroke:none;paint-order:stroke fill markers;fill-opacity:1"
     d="M 35.79,60 46.01,54.9 C 48.46,53.68 50,51.27 50,48.66 V 33.2 l -3.68,-1.89 c -6.56,-3.38 -14.5,-3.38 -21.06,0 l -3.68,1.89 v 15.46 c 0,2.62 1.53,5.02 3.99,6.24 z"
     id="path6" />
</svg>
